<mxfile host="app.diagrams.net" modified="2023-02-19T11:58:48.868Z" agent="5.0 (Windows NT 10.0; Win64; x64) AppleWebKit/537.36 (KHTML, like Gecko) Chrome/110.0.0.0 Safari/537.36" etag="WuIDOEFOdM5mBAz1E3Xk" version="20.8.20" type="github">
  <diagram name="Page-1" id="uSosFbavn_r_ZgASAxZB">
    <mxGraphModel dx="1430" dy="1939" grid="1" gridSize="10" guides="1" tooltips="1" connect="1" arrows="1" fold="1" page="1" pageScale="1" pageWidth="827" pageHeight="1169" math="0" shadow="0">
      <root>
        <mxCell id="0" />
        <mxCell id="1" parent="0" />
        <mxCell id="_Bq96bHH1vQHE10Y9X8i-5" style="edgeStyle=orthogonalEdgeStyle;rounded=0;orthogonalLoop=1;jettySize=auto;html=1;entryX=0;entryY=0.5;entryDx=0;entryDy=0;startArrow=none;startFill=0;endArrow=classic;endFill=1;exitX=0.5;exitY=1;exitDx=0;exitDy=0;" parent="1" source="v-ouawx7WPHho3FbS3GX-1" target="zUxqFtkJYijdz0BEmVfo-3" edge="1">
          <mxGeometry relative="1" as="geometry" />
        </mxCell>
        <mxCell id="_Bq96bHH1vQHE10Y9X8i-7" value="&amp;nbsp;&amp;lt;&amp;nbsp; 10 x 4K (85mbps)?&amp;nbsp;" style="edgeLabel;html=1;align=center;verticalAlign=middle;resizable=0;points=[];" parent="_Bq96bHH1vQHE10Y9X8i-5" vertex="1" connectable="0">
          <mxGeometry x="0.3852" y="4" relative="1" as="geometry">
            <mxPoint as="offset" />
          </mxGeometry>
        </mxCell>
        <mxCell id="v-ouawx7WPHho3FbS3GX-1" value="Camera" style="ellipse;whiteSpace=wrap;html=1;" parent="1" vertex="1">
          <mxGeometry x="40" y="530" width="60" height="40" as="geometry" />
        </mxCell>
        <mxCell id="v-ouawx7WPHho3FbS3GX-2" value="Sensors" style="ellipse;whiteSpace=wrap;html=1;" parent="1" vertex="1">
          <mxGeometry x="40" y="160" width="60" height="40" as="geometry" />
        </mxCell>
        <mxCell id="v-ouawx7WPHho3FbS3GX-3" value="" style="endArrow=classic;html=1;rounded=0;exitX=1;exitY=0.5;exitDx=0;exitDy=0;entryX=0;entryY=0.5;entryDx=0;entryDy=0;" parent="1" source="v-ouawx7WPHho3FbS3GX-2" target="v-ouawx7WPHho3FbS3GX-5" edge="1">
          <mxGeometry width="50" height="50" relative="1" as="geometry">
            <mxPoint x="140" y="200" as="sourcePoint" />
            <mxPoint x="200" y="180" as="targetPoint" />
          </mxGeometry>
        </mxCell>
        <mxCell id="v-ouawx7WPHho3FbS3GX-4" value="PUBLISH" style="edgeLabel;html=1;align=center;verticalAlign=middle;resizable=0;points=[];" parent="v-ouawx7WPHho3FbS3GX-3" vertex="1" connectable="0">
          <mxGeometry x="-0.4067" relative="1" as="geometry">
            <mxPoint x="10" y="-10" as="offset" />
          </mxGeometry>
        </mxCell>
        <mxCell id="v-ouawx7WPHho3FbS3GX-5" value="IBM Event Stream" style="rounded=0;whiteSpace=wrap;html=1;" parent="1" vertex="1">
          <mxGeometry x="280" y="160" width="80" height="40" as="geometry" />
        </mxCell>
        <mxCell id="zUxqFtkJYijdz0BEmVfo-28" style="edgeStyle=orthogonalEdgeStyle;rounded=0;orthogonalLoop=1;jettySize=auto;html=1;startArrow=classic;startFill=1;endArrow=none;endFill=0;exitX=0.073;exitY=-0.009;exitDx=0;exitDy=0;exitPerimeter=0;" parent="1" edge="1" source="_Bq96bHH1vQHE10Y9X8i-1">
          <mxGeometry relative="1" as="geometry">
            <mxPoint x="343" y="545" as="sourcePoint" />
            <mxPoint x="343" y="370" as="targetPoint" />
          </mxGeometry>
        </mxCell>
        <mxCell id="zUxqFtkJYijdz0BEmVfo-42" value="GET" style="edgeLabel;html=1;align=center;verticalAlign=middle;resizable=0;points=[];" parent="zUxqFtkJYijdz0BEmVfo-28" vertex="1" connectable="0">
          <mxGeometry x="0.0538" y="1" relative="1" as="geometry">
            <mxPoint x="-19" y="-3" as="offset" />
          </mxGeometry>
        </mxCell>
        <mxCell id="v-ouawx7WPHho3FbS3GX-12" value="SUBSCRIBE" style="endArrow=classic;html=1;rounded=0;exitX=0;exitY=0.5;exitDx=0;exitDy=0;entryX=1;entryY=0.5;entryDx=0;entryDy=0;" parent="1" source="v-ouawx7WPHho3FbS3GX-33" target="v-ouawx7WPHho3FbS3GX-5" edge="1">
          <mxGeometry y="-10" width="50" height="50" relative="1" as="geometry">
            <mxPoint x="440" y="250" as="sourcePoint" />
            <mxPoint x="490" y="200" as="targetPoint" />
            <mxPoint as="offset" />
          </mxGeometry>
        </mxCell>
        <mxCell id="v-ouawx7WPHho3FbS3GX-20" value="ATEA Livestream&lt;br&gt;&amp;nbsp;application" style="aspect=fixed;perimeter=ellipsePerimeter;html=1;align=center;shadow=0;dashed=0;fontColor=#4277BB;labelBackgroundColor=#ffffff;fontSize=12;spacingTop=3;image;image=img/lib/ibm/users/browser.svg;" parent="1" vertex="1">
          <mxGeometry x="900" y="390" width="70" height="70" as="geometry" />
        </mxCell>
        <mxCell id="v-ouawx7WPHho3FbS3GX-21" value="Server side" style="aspect=fixed;perimeter=ellipsePerimeter;html=1;align=center;shadow=0;dashed=0;fontColor=#4277BB;labelBackgroundColor=#ffffff;fontSize=12;spacingTop=3;image;image=img/lib/ibm/infrastructure/edge_services.svg;" parent="1" vertex="1">
          <mxGeometry x="420" y="40" width="60" height="60" as="geometry" />
        </mxCell>
        <mxCell id="v-ouawx7WPHho3FbS3GX-22" value="SensorDataBucket" style="aspect=fixed;perimeter=ellipsePerimeter;html=1;align=center;shadow=0;dashed=0;fontColor=#4277BB;labelBackgroundColor=#ffffff;fontSize=12;spacingTop=3;image;image=img/lib/ibm/data/data_services.svg;" parent="1" vertex="1">
          <mxGeometry x="520" y="150" width="60" height="60" as="geometry" />
        </mxCell>
        <mxCell id="zUxqFtkJYijdz0BEmVfo-11" style="edgeStyle=orthogonalEdgeStyle;rounded=0;orthogonalLoop=1;jettySize=auto;html=1;exitX=1;exitY=0.5;exitDx=0;exitDy=0;" parent="1" source="v-ouawx7WPHho3FbS3GX-33" target="v-ouawx7WPHho3FbS3GX-22" edge="1">
          <mxGeometry relative="1" as="geometry" />
        </mxCell>
        <mxCell id="zUxqFtkJYijdz0BEmVfo-12" value="POST / GET" style="edgeLabel;html=1;align=center;verticalAlign=middle;resizable=0;points=[];" parent="zUxqFtkJYijdz0BEmVfo-11" vertex="1" connectable="0">
          <mxGeometry x="0.2431" relative="1" as="geometry">
            <mxPoint x="40" y="-44" as="offset" />
          </mxGeometry>
        </mxCell>
        <mxCell id="v-ouawx7WPHho3FbS3GX-33" value="Analytics API" style="aspect=fixed;perimeter=ellipsePerimeter;html=1;align=center;shadow=0;dashed=0;fontColor=#4277BB;labelBackgroundColor=#ffffff;fontSize=12;spacingTop=3;image;image=img/lib/ibm/analytics/analytics.svg;" parent="1" vertex="1">
          <mxGeometry x="430" y="160" width="40" height="40" as="geometry" />
        </mxCell>
        <mxCell id="v-ouawx7WPHho3FbS3GX-34" value="IBM Dashboard" style="aspect=fixed;perimeter=ellipsePerimeter;html=1;align=center;shadow=0;dashed=0;fontColor=#4277BB;labelBackgroundColor=#ffffff;fontSize=12;spacingTop=3;image;image=img/lib/ibm/analytics/analytics.svg;" parent="1" vertex="1">
          <mxGeometry x="640" y="200" width="40" height="40" as="geometry" />
        </mxCell>
        <mxCell id="v-ouawx7WPHho3FbS3GX-35" value="" style="endArrow=classic;html=1;rounded=0;exitX=0;exitY=0.25;exitDx=0;exitDy=0;entryX=1;entryY=0.75;entryDx=0;entryDy=0;" parent="1" source="v-ouawx7WPHho3FbS3GX-34" target="v-ouawx7WPHho3FbS3GX-22" edge="1">
          <mxGeometry width="50" height="50" relative="1" as="geometry">
            <mxPoint x="600" y="240" as="sourcePoint" />
            <mxPoint x="600" y="200" as="targetPoint" />
          </mxGeometry>
        </mxCell>
        <mxCell id="v-ouawx7WPHho3FbS3GX-36" value="GET" style="edgeLabel;html=1;align=center;verticalAlign=middle;resizable=0;points=[];" parent="v-ouawx7WPHho3FbS3GX-35" vertex="1" connectable="0">
          <mxGeometry x="-0.16" y="2" relative="1" as="geometry">
            <mxPoint x="12" y="-11" as="offset" />
          </mxGeometry>
        </mxCell>
        <mxCell id="v-ouawx7WPHho3FbS3GX-38" value="Client side" style="aspect=fixed;perimeter=ellipsePerimeter;html=1;align=center;shadow=0;dashed=0;fontColor=#4277BB;labelBackgroundColor=#ffffff;fontSize=12;spacingTop=3;image;image=img/lib/ibm/users/user.svg;" parent="1" vertex="1">
          <mxGeometry x="800" y="40" width="60" height="60" as="geometry" />
        </mxCell>
        <mxCell id="v-ouawx7WPHho3FbS3GX-42" value="iFrame" style="endArrow=none;html=1;rounded=0;exitX=0;exitY=0;exitDx=0;exitDy=0;entryX=1;entryY=1;entryDx=0;entryDy=0;endFill=0;startArrow=classic;startFill=1;" parent="1" source="v-ouawx7WPHho3FbS3GX-20" target="v-ouawx7WPHho3FbS3GX-34" edge="1">
          <mxGeometry x="-0.26" y="-18" width="50" height="50" relative="1" as="geometry">
            <mxPoint x="760" y="400" as="sourcePoint" />
            <mxPoint x="640" y="280" as="targetPoint" />
            <mxPoint as="offset" />
          </mxGeometry>
        </mxCell>
        <mxCell id="v-ouawx7WPHho3FbS3GX-43" value="HLS med flere kanaler (per kamera)?" style="endArrow=none;html=1;rounded=0;endFill=0;entryX=1;entryY=0.5;entryDx=0;entryDy=0;startArrow=classic;startFill=1;exitX=0;exitY=1;exitDx=0;exitDy=0;" parent="1" source="v-ouawx7WPHho3FbS3GX-20" target="zUxqFtkJYijdz0BEmVfo-3" edge="1">
          <mxGeometry x="-0.063" y="48" width="50" height="50" relative="1" as="geometry">
            <mxPoint x="870" y="490" as="sourcePoint" />
            <mxPoint x="630" y="565" as="targetPoint" />
            <mxPoint as="offset" />
          </mxGeometry>
        </mxCell>
        <mxCell id="v-ouawx7WPHho3FbS3GX-44" value="" style="endArrow=none;dashed=1;html=1;dashPattern=1 3;strokeWidth=2;rounded=0;" parent="1" edge="1">
          <mxGeometry width="50" height="50" relative="1" as="geometry">
            <mxPoint x="680" y="730" as="sourcePoint" />
            <mxPoint x="680" as="targetPoint" />
          </mxGeometry>
        </mxCell>
        <mxCell id="v-ouawx7WPHho3FbS3GX-45" value="Scientist?" style="shape=umlActor;verticalLabelPosition=bottom;verticalAlign=top;html=1;outlineConnect=0;" parent="1" vertex="1">
          <mxGeometry x="890" y="140" width="30" height="60" as="geometry" />
        </mxCell>
        <mxCell id="v-ouawx7WPHho3FbS3GX-49" value="" style="endArrow=classic;html=1;rounded=0;entryX=1;entryY=0.25;entryDx=0;entryDy=0;exitX=0.5;exitY=0.5;exitDx=0;exitDy=0;exitPerimeter=0;" parent="1" source="v-ouawx7WPHho3FbS3GX-45" target="v-ouawx7WPHho3FbS3GX-22" edge="1">
          <mxGeometry width="50" height="50" relative="1" as="geometry">
            <mxPoint x="590" y="190" as="sourcePoint" />
            <mxPoint x="520" y="160" as="targetPoint" />
          </mxGeometry>
        </mxCell>
        <mxCell id="v-ouawx7WPHho3FbS3GX-50" value="GET" style="edgeLabel;html=1;align=center;verticalAlign=middle;resizable=0;points=[];" parent="v-ouawx7WPHho3FbS3GX-49" vertex="1" connectable="0">
          <mxGeometry x="0.2789" y="-1" relative="1" as="geometry">
            <mxPoint x="13" y="20" as="offset" />
          </mxGeometry>
        </mxCell>
        <mxCell id="zUxqFtkJYijdz0BEmVfo-32" style="edgeStyle=orthogonalEdgeStyle;rounded=0;orthogonalLoop=1;jettySize=auto;html=1;entryX=1;entryY=0.5;entryDx=0;entryDy=0;startArrow=classic;startFill=1;endArrow=classic;endFill=1;" parent="1" source="zUxqFtkJYijdz0BEmVfo-1" target="zUxqFtkJYijdz0BEmVfo-19" edge="1">
          <mxGeometry relative="1" as="geometry" />
        </mxCell>
        <mxCell id="zUxqFtkJYijdz0BEmVfo-34" value="GET/POST" style="edgeLabel;html=1;align=center;verticalAlign=middle;resizable=0;points=[];" parent="zUxqFtkJYijdz0BEmVfo-32" vertex="1" connectable="0">
          <mxGeometry x="0.116" y="1" relative="1" as="geometry">
            <mxPoint as="offset" />
          </mxGeometry>
        </mxCell>
        <mxCell id="zUxqFtkJYijdz0BEmVfo-41" style="edgeStyle=orthogonalEdgeStyle;rounded=0;orthogonalLoop=1;jettySize=auto;html=1;entryX=0.5;entryY=0;entryDx=0;entryDy=0;startArrow=classic;startFill=1;endArrow=classic;endFill=1;exitX=1;exitY=0.5;exitDx=0;exitDy=0;" parent="1" source="zUxqFtkJYijdz0BEmVfo-1" target="zUxqFtkJYijdz0BEmVfo-5" edge="1">
          <mxGeometry relative="1" as="geometry">
            <Array as="points">
              <mxPoint x="560" y="340" />
              <mxPoint x="560" y="340" />
            </Array>
          </mxGeometry>
        </mxCell>
        <mxCell id="zUxqFtkJYijdz0BEmVfo-47" value="GET/DELETE" style="edgeLabel;html=1;align=center;verticalAlign=middle;resizable=0;points=[];" parent="zUxqFtkJYijdz0BEmVfo-41" vertex="1" connectable="0">
          <mxGeometry x="-0.0032" y="-1" relative="1" as="geometry">
            <mxPoint x="1" y="-11" as="offset" />
          </mxGeometry>
        </mxCell>
        <mxCell id="_Bq96bHH1vQHE10Y9X8i-10" style="edgeStyle=orthogonalEdgeStyle;rounded=0;orthogonalLoop=1;jettySize=auto;html=1;startArrow=none;startFill=0;endArrow=classic;endFill=1;exitX=0.5;exitY=0;exitDx=0;exitDy=0;" parent="1" source="zUxqFtkJYijdz0BEmVfo-1" target="v-ouawx7WPHho3FbS3GX-20" edge="1">
          <mxGeometry relative="1" as="geometry" />
        </mxCell>
        <mxCell id="_Bq96bHH1vQHE10Y9X8i-11" value="Highlights?" style="edgeLabel;html=1;align=center;verticalAlign=middle;resizable=0;points=[];" parent="_Bq96bHH1vQHE10Y9X8i-10" vertex="1" connectable="0">
          <mxGeometry x="0.6328" y="3" relative="1" as="geometry">
            <mxPoint x="-50" y="-7" as="offset" />
          </mxGeometry>
        </mxCell>
        <mxCell id="zUxqFtkJYijdz0BEmVfo-1" value="VideoBucket" style="aspect=fixed;perimeter=ellipsePerimeter;html=1;align=center;shadow=0;dashed=0;fontColor=#4277BB;labelBackgroundColor=#ffffff;fontSize=12;spacingTop=3;image;image=img/lib/ibm/data/data_services.svg;" parent="1" vertex="1">
          <mxGeometry x="450" y="310" width="60" height="60" as="geometry" />
        </mxCell>
        <mxCell id="_Bq96bHH1vQHE10Y9X8i-6" style="edgeStyle=orthogonalEdgeStyle;rounded=0;orthogonalLoop=1;jettySize=auto;html=1;entryX=1;entryY=0.5;entryDx=0;entryDy=0;startArrow=none;startFill=0;endArrow=classic;endFill=1;" parent="1" source="zUxqFtkJYijdz0BEmVfo-3" target="_Bq96bHH1vQHE10Y9X8i-2" edge="1">
          <mxGeometry relative="1" as="geometry" />
        </mxCell>
        <mxCell id="_Bq96bHH1vQHE10Y9X8i-8" value="4K:?" style="edgeLabel;html=1;align=center;verticalAlign=middle;resizable=0;points=[];" parent="_Bq96bHH1vQHE10Y9X8i-6" vertex="1" connectable="0">
          <mxGeometry x="0.2648" y="1" relative="1" as="geometry">
            <mxPoint x="21" y="1" as="offset" />
          </mxGeometry>
        </mxCell>
        <mxCell id="zUxqFtkJYijdz0BEmVfo-3" value="UiO Video Streaming&lt;br&gt;Nedskalerer videokvalitet?" style="rounded=0;whiteSpace=wrap;html=1;" parent="1" vertex="1">
          <mxGeometry x="368.65999999999997" y="680" width="200" height="40" as="geometry" />
        </mxCell>
        <mxCell id="zUxqFtkJYijdz0BEmVfo-40" style="edgeStyle=orthogonalEdgeStyle;rounded=0;orthogonalLoop=1;jettySize=auto;html=1;entryX=1;entryY=0.5;entryDx=0;entryDy=0;startArrow=classic;startFill=1;endArrow=classic;endFill=1;exitX=0;exitY=0.75;exitDx=0;exitDy=0;" parent="1" source="zUxqFtkJYijdz0BEmVfo-5" target="zUxqFtkJYijdz0BEmVfo-39" edge="1">
          <mxGeometry relative="1" as="geometry" />
        </mxCell>
        <mxCell id="zUxqFtkJYijdz0BEmVfo-5" value="&lt;span style=&quot;font-weight: normal;&quot;&gt;Admin/Video &lt;br&gt;annotation app?&lt;/span&gt;" style="aspect=fixed;perimeter=ellipsePerimeter;html=1;align=center;shadow=0;dashed=0;fontColor=#4277BB;labelBackgroundColor=#ffffff;fontSize=12;spacingTop=3;image;image=img/lib/ibm/users/browser.svg;fontStyle=1" parent="1" vertex="1">
          <mxGeometry x="730" y="340" width="40" height="40" as="geometry" />
        </mxCell>
        <mxCell id="zUxqFtkJYijdz0BEmVfo-33" style="edgeStyle=orthogonalEdgeStyle;rounded=0;orthogonalLoop=1;jettySize=auto;html=1;entryX=0;entryY=0.5;entryDx=0;entryDy=0;startArrow=none;startFill=0;endArrow=classic;endFill=1;exitX=1;exitY=1;exitDx=0;exitDy=0;" parent="1" source="zUxqFtkJYijdz0BEmVfo-19" target="zUxqFtkJYijdz0BEmVfo-31" edge="1">
          <mxGeometry relative="1" as="geometry" />
        </mxCell>
        <mxCell id="zUxqFtkJYijdz0BEmVfo-38" value="PUBLISH" style="edgeLabel;html=1;align=center;verticalAlign=middle;resizable=0;points=[];" parent="zUxqFtkJYijdz0BEmVfo-33" vertex="1" connectable="0">
          <mxGeometry x="-0.1385" y="3" relative="1" as="geometry">
            <mxPoint x="8" y="-7" as="offset" />
          </mxGeometry>
        </mxCell>
        <mxCell id="zUxqFtkJYijdz0BEmVfo-19" value="Video Management Server" style="rounded=0;whiteSpace=wrap;html=1;" parent="1" vertex="1">
          <mxGeometry x="280" y="330" width="80" height="40" as="geometry" />
        </mxCell>
        <mxCell id="zUxqFtkJYijdz0BEmVfo-45" style="edgeStyle=orthogonalEdgeStyle;rounded=0;orthogonalLoop=1;jettySize=auto;html=1;entryX=0;entryY=0.75;entryDx=0;entryDy=0;startArrow=none;startFill=0;endArrow=classic;endFill=1;" parent="1" source="zUxqFtkJYijdz0BEmVfo-31" target="v-ouawx7WPHho3FbS3GX-20" edge="1">
          <mxGeometry relative="1" as="geometry" />
        </mxCell>
        <mxCell id="zUxqFtkJYijdz0BEmVfo-46" value="SUBSCRIBE" style="edgeLabel;html=1;align=center;verticalAlign=middle;resizable=0;points=[];" parent="zUxqFtkJYijdz0BEmVfo-45" vertex="1" connectable="0">
          <mxGeometry x="0.2152" y="-1" relative="1" as="geometry">
            <mxPoint x="-122" y="28" as="offset" />
          </mxGeometry>
        </mxCell>
        <mxCell id="zUxqFtkJYijdz0BEmVfo-31" value="Event Stream (Notifications)" style="rounded=0;whiteSpace=wrap;html=1;" parent="1" vertex="1">
          <mxGeometry x="400" y="460" width="80" height="40" as="geometry" />
        </mxCell>
        <mxCell id="zUxqFtkJYijdz0BEmVfo-39" value="ActionMetadataBucket" style="aspect=fixed;perimeter=ellipsePerimeter;html=1;align=center;shadow=0;dashed=0;fontColor=#4277BB;labelBackgroundColor=#ffffff;fontSize=12;spacingTop=3;image;image=img/lib/ibm/data/data_services.svg;" parent="1" vertex="1">
          <mxGeometry x="540" y="360" width="60" height="60" as="geometry" />
        </mxCell>
        <mxCell id="_Bq96bHH1vQHE10Y9X8i-1" value="UiO Video API" style="rounded=0;whiteSpace=wrap;html=1;" parent="1" vertex="1">
          <mxGeometry x="338.65999999999997" y="580" width="70" height="40" as="geometry" />
        </mxCell>
        <mxCell id="_Bq96bHH1vQHE10Y9X8i-9" value="" style="edgeStyle=orthogonalEdgeStyle;rounded=0;orthogonalLoop=1;jettySize=auto;html=1;startArrow=none;startFill=0;endArrow=classic;endFill=1;" parent="1" source="_Bq96bHH1vQHE10Y9X8i-2" target="zUxqFtkJYijdz0BEmVfo-3" edge="1">
          <mxGeometry relative="1" as="geometry" />
        </mxCell>
        <mxCell id="_Bq96bHH1vQHE10Y9X8i-2" value="7 day VideoBuffer" style="aspect=fixed;perimeter=ellipsePerimeter;html=1;align=center;shadow=0;dashed=0;fontColor=#4277BB;labelBackgroundColor=#ffffff;fontSize=12;spacingTop=3;image;image=img/lib/ibm/data/data_services.svg;" parent="1" vertex="1">
          <mxGeometry x="408.65999999999997" y="570" width="60" height="60" as="geometry" />
        </mxCell>
        <mxCell id="lj38vK_lOa-7YGrc03XS-1" value="" style="ellipse;whiteSpace=wrap;html=1;" parent="1" vertex="1">
          <mxGeometry x="790" y="350" width="120" height="80" as="geometry" />
        </mxCell>
        <mxCell id="lj38vK_lOa-7YGrc03XS-2" value="" style="ellipse;whiteSpace=wrap;html=1;" parent="1" vertex="1">
          <mxGeometry x="790" y="350" width="120" height="80" as="geometry" />
        </mxCell>
        <mxCell id="T9emU1EqKY-vnt2EGGcf-1" value="" style="endArrow=none;dashed=1;html=1;dashPattern=1 3;strokeWidth=2;rounded=0;" edge="1" parent="1">
          <mxGeometry width="50" height="50" relative="1" as="geometry">
            <mxPoint x="230" y="730" as="sourcePoint" />
            <mxPoint x="230" as="targetPoint" />
          </mxGeometry>
        </mxCell>
        <mxCell id="T9emU1EqKY-vnt2EGGcf-2" value="Hotel Side" style="aspect=fixed;perimeter=ellipsePerimeter;html=1;align=center;shadow=0;dashed=0;fontColor=#4277BB;labelBackgroundColor=#ffffff;fontSize=12;spacingTop=3;image;image=img/lib/ibm/management/information_governance.svg;" vertex="1" parent="1">
          <mxGeometry x="70" y="40" width="60" height="60" as="geometry" />
        </mxCell>
      </root>
    </mxGraphModel>
  </diagram>
</mxfile>
